Coordinates
version=1
nRows=15
nColumns=23
inDegrees=yes

Units are S.I. units (second, meters, Newtons, ...)
If the header above contains a line with 'inDegrees', this indicates whether rotational values are in degrees (yes) or radians (no).

endheader
time	pelvis_tilt	pelvis_list	pelvis_rotation	pelvis_tx	pelvis_ty	pelvis_tz	hip_flexion_r	hip_adduction_r	hip_rotation_r	knee_angle_r	knee_angle_r_beta	ankle_angle_r	subtalar_angle_r	mtp_angle_r	hip_flexion_l	hip_adduction_l	hip_rotation_l	knee_angle_l	knee_angle_l_beta	ankle_angle_l	subtalar_angle_l	mtp_angle_l
     15.00000000	     72.27930023	    -62.85489885	     39.51680059	      4.99999950	     -0.99999839	     -1.58368431	    -29.99965840	    -49.99957275	     21.11514402	     26.20585183	      0.45737840	     28.00432101	     29.98925330	      0.00000000	     71.53387733	    -49.99985915	    -39.99864012	      4.07358897	      0.07109754	    -39.99988907	    -12.68565586	      0.00000000
     15.00666667	     73.05312001	    -62.29638447	     40.21507837	      4.99999950	     -0.99999840	     -1.59072478	    -29.99966056	    -49.99958364	     21.57257081	     26.50758349	      0.46264461	     27.90452011	     29.98928611	      0.00000000	     70.62088996	    -49.99985935	    -39.99863483	      4.09019111	      0.07138730	    -39.99988940	    -12.67299779	      0.00000000
     15.01333333	     73.70935575	    -61.72728213	     40.79666319	      4.99999950	     -0.99999842	     -1.59763759	    -29.99966257	    -49.99959388	     22.03146833	     26.81461383	      0.46800330	     27.86641402	     29.98928788	      0.00000000	     69.69043736	    -49.99985954	    -39.99863108	      4.10863994	      0.07170929	    -39.99988973	    -12.66565157	      0.00000000
     15.02000000	     74.27506938	    -61.15060007	     41.28639401	      4.99999951	     -0.99999844	     -1.60440309	    -29.99966448	    -49.99960354	     22.48143406	     27.12563387	      0.47343162	     27.80652193	     29.98930792	      0.00000000	     68.74631755	    -49.99985971	    -39.99862900	      4.12823120	      0.07205123	    -39.99989005	    -12.66222710	      0.00000000
     15.02666667	     74.72891599	    -60.57495254	     41.66483825	      4.99999951	     -0.99999845	     -1.61102241	    -29.99966623	    -49.99961258	     22.92694538	     27.43647361	      0.47885680	     27.79651245	     29.98929251	      0.00000000	     67.79785968	    -49.99985986	    -39.99862866	      4.14873851	      0.07240915	    -39.99989036	    -12.66373594	      0.00000000
     15.03333333	     75.08994554	    -60.00243202	     41.95007023	      4.99999951	     -0.99999847	     -1.61754486	    -29.99966788	    -49.99962106	     23.36156630	     27.74849930	      0.48430268	     27.79345153	     29.98928388	      0.00000000	     66.84879004	    -49.99985999	    -39.99862977	      4.17023093	      0.07278426	    -39.99989067	    -12.66855467	      0.00000000
     15.04000000	     75.35282889	    -59.43833798	     42.13775476	      4.99999951	     -0.99999849	     -1.62403237	    -29.99966940	    -49.99962896	     23.78454053	     28.05925807	      0.48972644	     27.81079508	     29.98926660	      0.00000000	     65.90523310	    -49.99986012	    -39.99863212	      4.19224770	      0.07316853	    -39.99989098	    -12.67640523	      0.00000000
     15.04666667	     75.52201211	    -58.88617567	     42.23318586	      4.99999952	     -0.99999850	     -1.63054938	    -29.99967082	    -49.99963633	     24.19162728	     28.36660419	      0.49509064	     27.84193293	     29.98924586	      0.00000000	     64.97308235	    -49.99986023	    -39.99863552	      4.21535579	      0.07357184	    -39.99989128	    -12.68711728	      0.00000000
     15.05333333	     75.59165060	    -58.35026474	     42.23143781	      4.99999952	     -0.99999852	     -1.63714674	    -29.99967211	    -49.99964318	     24.58212731	     28.66918591	      0.50037169	     27.90979119	     29.98920863	      0.00000000	     64.05704142	    -49.99986033	    -39.99863986	      4.23917653	      0.07398759	    -39.99989159	    -12.69967743	      0.00000000
     15.06000000	     75.57683228	    -57.83187285	     42.14685712	      4.99999952	     -0.99999853	     -1.64385453	    -29.99967330	    -49.99964954	     24.95158911	     28.96512666	      0.50553683	     27.98879732	     29.98916505	      0.00000000	     63.16014262	    -49.99986042	    -39.99864493	      4.26361030	      0.07441404	    -39.99989189	    -12.71430887	      0.00000000
     15.06666667	     75.48549938	    -57.33210901	     41.98725958	      4.99999953	     -0.99999855	     -1.65068464	    -29.99967440	    -49.99965546	     25.29757789	     29.25342455	      0.51056858	     28.08521627	     29.98910622	      0.00000000	     62.28455149	    -49.99986051	    -39.99865062	      4.28843211	      0.07484726	    -39.99989219	    -12.73027572	      0.00000000
     15.07333333	     75.33172219	    -56.85050280	     41.76549549	      4.99999953	     -0.99999856	     -1.65763554	    -29.99967541	    -49.99966095	     25.61683645	     29.53299065	      0.51544792	     28.19256300	     29.98904030	      0.00000000	     61.43070021	    -49.99986058	    -39.99865697	      4.31377970	      0.07528966	    -39.99989249	    -12.74784592	      0.00000000
     15.08000000	     75.12449406	    -56.38698263	     41.48969384	      4.99999953	     -0.99999857	     -1.66470299	    -29.99967633	    -49.99966603	     25.90929145	     29.80186888	      0.52014074	     28.31059403	     29.98895966	      0.00000000	     60.59918349	    -49.99986066	    -39.99866413	      4.33930151	      0.07573510	    -39.99989278	    -12.76720385	      0.00000000
     15.08666667	     74.88868399	    -55.93669509	     41.18197879	      4.99999953	     -0.99999859	     -1.67187912	    -29.99967717	    -49.99967072	     26.17219830	     30.06182553	      0.52467783	     28.42810240	     29.98886491	      0.00000000	     59.78428436	    -49.99986073	    -39.99867209	      4.36485887	      0.07618116	    -39.99989307	    -12.78870654	      0.00000000
     15.09333333	     74.62345018	    -55.50055880	     40.84178339	      4.99999953	     -0.99999860	     -1.67913721	    -29.99967791	    -49.99967511	     26.40834598	     30.31045780	      0.52901729	     28.55905481	     29.98875328	      0.00000000	     58.98924998	    -49.99986078	    -39.99868109	      4.39120696	      0.07664102	    -39.99989335	    -12.81245311	      0.00000000
